<?xml version="1.0" encoding="UTF-8" standalone="no"?>
<!DOCTYPE svg PUBLIC "-//W3C//DTD SVG 20010904//EN"
              "http://www.w3.org/TR/2001/REC-SVG-20010904/DTD/svg10.dtd">

<svg xmlns="http://www.w3.org/2000/svg"
     width="8.88889in" height="8.88889in"
     viewBox="0 0 800 800">
  <path id="Selection #1"
        fill="black" stroke="none" stroke-width="0"
        d="M 377.00,82.21
           C 377.00,82.21 415.00,82.21 415.00,82.21
             415.00,82.21 430.00,83.00 430.00,83.00
             455.92,83.30 492.49,88.94 518.00,94.58
             591.78,110.87 662.37,142.09 723.00,187.37
             743.08,202.37 762.27,218.27 780.00,236.00
             791.00,247.00 799.80,254.23 800.00,271.00
             800.04,275.10 800.22,280.05 799.32,284.00
             795.09,302.71 777.06,315.73 758.00,314.49
             735.39,313.02 727.24,299.28 712.00,285.09
             696.13,270.30 671.29,250.72 653.00,239.05
             597.42,203.61 541.15,180.71 476.00,169.92
             476.00,169.92 432.00,164.91 432.00,164.91
             432.00,164.91 422.00,164.00 422.00,164.00
             422.00,164.00 380.00,164.00 380.00,164.00
             380.00,164.00 368.00,164.91 368.00,164.91
             350.47,166.12 333.30,168.15 316.00,171.39
             264.76,180.98 213.93,198.96 169.00,225.60
             139.29,243.22 114.68,260.94 89.00,284.17
             74.02,297.72 61.80,315.97 39.00,314.49
             20.58,313.29 5.78,303.52 0.92,285.00
             -0.26,280.47 -0.05,275.65 0.00,271.00
             0.20,254.23 9.00,247.00 20.00,236.00
             36.82,219.18 54.97,203.90 74.00,189.63
             137.40,142.08 211.33,108.83 289.00,93.00
             308.76,88.98 328.94,86.09 349.00,84.17
             349.00,84.17 363.00,83.04 363.00,83.04
             363.00,83.04 377.00,82.21 377.00,82.21 Z
           M 385.00,233.42
           C 400.25,231.57 437.97,234.64 454.00,236.87
             526.05,246.88 594.96,276.48 651.00,323.08
             662.63,332.75 673.78,342.95 684.09,354.00
             691.37,361.81 696.44,365.53 700.54,376.00
             703.02,382.35 703.07,386.35 703.00,393.00
             702.73,415.74 683.47,432.84 661.00,431.96
             638.73,431.09 632.93,418.43 619.00,405.04
             605.93,392.47 591.80,380.90 577.00,370.42
             532.89,339.21 476.83,319.67 423.00,315.91
             423.00,315.91 413.00,315.00 413.00,315.00
             413.00,315.00 389.00,315.00 389.00,315.00
             389.00,315.00 377.00,315.91 377.00,315.91
             324.65,319.57 274.07,337.30 230.00,365.69
             212.51,376.96 195.98,390.64 181.00,405.04
             166.52,418.95 159.22,432.87 136.00,431.96
             111.44,431.00 96.73,412.75 97.00,389.00
             97.20,372.55 105.55,365.12 115.91,354.00
             127.38,341.70 139.87,330.36 153.00,319.80
             203.07,279.56 261.11,253.03 324.00,240.45
             336.25,238.00 362.98,234.06 375.00,234.00
             379.45,233.98 380.47,234.07 385.00,233.42 Z
           M 393.00,384.42
           C 401.73,383.36 425.63,385.57 435.00,386.87
             482.42,393.45 527.58,414.78 563.00,446.93
             568.24,451.68 570.74,453.36 575.72,459.00
             587.60,472.48 604.55,488.94 604.99,508.00
             605.53,531.46 587.31,552.07 563.00,550.49
             537.46,548.83 532.85,535.19 517.72,518.00
             512.98,512.62 507.43,507.94 502.00,503.28
             477.05,481.88 438.06,466.39 405.00,466.00
             366.67,465.56 328.69,477.77 299.00,502.43
             288.89,510.83 285.64,513.98 277.13,524.00
             277.13,524.00 265.83,537.96 265.83,537.96
             257.81,546.44 245.69,551.25 234.00,550.49
             210.46,548.96 194.47,531.60 195.01,508.00
             195.35,493.55 204.09,482.58 212.92,472.00
             219.82,463.73 226.90,455.82 235.00,448.72
             270.49,417.59 303.81,399.61 350.00,389.42
             350.00,389.42 379.00,385.17 379.00,385.17
             379.00,385.17 393.00,384.42 393.00,384.42 Z
           M 387.00,536.43
           C 414.46,533.04 442.67,540.96 463.00,560.09
             498.73,593.72 500.89,653.20 467.15,688.91
             458.74,697.81 450.17,704.54 439.00,709.69
             424.77,716.26 411.50,718.18 396.00,718.00
             362.85,717.61 331.01,695.90 317.31,666.00
             310.19,650.46 308.97,639.77 309.00,623.00
             309.02,610.62 312.30,598.09 317.76,587.00
             332.09,557.84 355.23,541.63 387.00,536.43 Z" />
</svg>
